<svg xmlns="http://www.w3.org/2000/svg" viewBox="0 0 595.28 595.28"><defs><style>.cls-1{opacity:0.67;}.cls-2{fill:#d8edf3;opacity:0.44;}.cls-3{fill:#388195;}.cls-4{fill:#649cb5;}.cls-5{fill:#006174;}.cls-6{fill:#007184;}.cls-7{fill:#80b3d0;}</style></defs><title>servicios</title><g id="Capa_3" data-name="Capa 3"><path class="cls-2" d="M277.69,391.09c-1.89-4.84-3.14-8.18,2.29-13.19s9.45-6.65,16-4.89c2.41.65,2.66-2.62,4.37-3.53.35.46-.6,1.83,1,1.4l-1-1.39c0-1.94,0-3.88,2.65-4.05-.55,16.26,3.11,32.17,3.91,48.32-2.54,1.65-6.86-.15-8,4.14-.33,0-.67,0-1,0-1.85-1.53-5,3.13-6.08-1.07-1.52-6.21-3.26-.71-4.9-.27L286,415.2c-.61,1.19-.59,2.24.67,3a10.07,10.07,0,0,0-2.6,7.2q.36,13,.34,26.06c0,4.11,2.12,8.27-.23,12.33-1.82-1.16-.51-4-3.06-5.27-1.31,4.15-1.78,8,.45,11.91l1.24,6.76q1.41,12.13,2.81,24.28c-1.15,6.92-3.28,13.23-10.86,16.94V506.86c-2.66-4.71-7.13-2-10.78-2.64-1-1.48-1.63-3.82-4-1.5-2,.21-2.67-.82-2.54-2.64,1.07-.72,2.52-1.41,1.89-3s-2.25-.87-3.48-1q-.87-5.34-1.75-10.68c-.37-3.31,1.19-7.63-4.33-8.23-.21-7.29-2.76-14.46-1-21.83l4.31,1.73c1.05,8.83,8.41,6.41,13.64,7.82-5-2.32-8.37-7-13.48-9.14-1.14-4.53,1.77-9.17-.4-13.67l5.75-10.68c6.15-.66,6.24-5.3,6.5-9.85l1.23-1.09c4-.69,5.25-3.49,5.44-7.1l10.37-24.94C279.54,387.88,279.07,390.19,277.69,391.09Zm-23.52,78.27a1.56,1.56,0,0,0-.18-.54c0-.05-.3.07-.46.12a2,2,0,0,0,.18.54S254,469.41,254.17,469.36Z"/><path class="cls-2" d="M372.76,329.19l13.84.17q.56,2.53,1.12,5.07l.08-.07c-.11.14-.32.3-.3.4a5.07,5.07,0,0,0,.36.91c.07,6.12,2.08,11.76,4.69,17.12,2.53,5.21,5.82,9.95,12.46,10.48,3.15,1.57-.52,7.83,5.23,7.62-3.26,11.44,1.38,22.41,2,33.62.67,4,2.55,7.77-3.61,10.17-4.81,1.89-4,8.87.65,12.26-2.68,5.93,4.65,5.37,5.74,8.85,2.27,1.66,2.55,5.82,6.59,5.23,3.51,5.24,3.19,10-1.76,14.21-1.18,1-3.45,2.32-3.37-.16.18-5.15-2.87-7-6.65-8.73-2.29-1.06-2-3.85-3.2-5.65-.07-3.67-3.11-5.69-5.3-7.53-6.47-5.43-8.59-11.46-4.82-19.22,2.52-1.66,2.13-4.26,2.14-6.72,2.62-2.9.21-5.51-.46-8.22a78.79,78.79,0,0,0-2.45-17.28c-.77-3.31-1.52-6.64-3.38-9.57C388.8,356.48,384.09,341.32,372.76,329.19Z"/><path class="cls-2" d="M249,381.58c3.65,2.66,5.21,8.73,11.59,7,.89-.24,1.64.74,1.7,1.69a1.64,1.64,0,0,1-1.49,1.89c-2.61.17-5.41,2.76-7.73-1-1.53-2.5-3.43-1-5,.42s-1.3,3.06.17,4.6c4.2,4.43,7.73,9.06,6.45,15.84-.39,2,1.26,4.22,3,1.72,3.64-5.33,11-8.66,8.64-17.53-1-3.59,3.69-3.16,6.37-3.45.41,7.17-2.12,13.35-6.09,19.16-2.07,3-4.51,6-4,10.11l.06-.05c-1.34-.42-1.57.27-1.4,1.38l0,0c-3.32.33-3.18,4-5.25,5.49-2.54-.56-3.92,1.25-5.49,2.67l-.51-.3.53.28c.08,1,.16,2,.23,3-1.56,2.87-5.62,4.86-3.24,9.14q-1.1,2.19-2.18,4.39c-3.6,0-5.49-2-7.12-5-1.75-3.2-2.62-7.14-6.4-8.91-.28-3.79-5.31-6-3.51-10.49,3.81-5.41,7.15-11.1,10.48-16.82C243.39,398.74,244.56,389.52,249,381.58Z"/><path class="cls-3" d="M252.13,114.91c-3.52-11.25-10-21.08-14.93-31.67-2-4.32-4.33-8.5-7.29-14.27,4.46,2.81,4.34,6.6,6.81,8.56L238,80.24c.25.69.08,2.1,1.25,1.51.83-.42.17-1.52-.42-2.2-.5-.86-1-1.73-1.49-2.6.1-2.14.21-4.29.39-7.82,2.82,5.93,5.15,10.77,7.45,15.62,7.94,16.75,16.92,32.69,28.27,47.62,5.39,7.09,10.08,14.94,16.19,21.7,3.61,4,6.15,5,9.51-.43,2-3.3,3.83-7.72,9-7.79,2.92,1.47.42,5,2.63,6.79,0,5.41-7.86,14.27-13.19,14.92l.15-2.62c1.42-.29,3.14-.16,3.53-2.06.09-.45-.42-1.46-.72-1.48-2.27-.21-2.71,1.53-3.14,3.22-1.69.27-2.64,1.14-2.42,3v0c-3.21-.26-4.31,3.23-7,3.91,2.56-5.26,1-8.59-3.8-12.14-7.74-5.69-10.68-15.55-17.4-22.34-1.71-1.72-2.9-3.95-5.46-4.64l0,.07c.07-1.87-.66-3-2.7-2.71v0c.31-1.29,0-2.29-1.36-2.72h0a2.86,2.86,0,0,0-1.3-3C255.41,120.68,255.33,117.13,252.13,114.91Z"/><path class="cls-3" d="M458,151.48c-9.4,9.1-18.74,18.26-29.4,25.92-4.39,3.16-6.59,8.21-10.59,11.94-7.9,7.36-17.08,13.94-22.15,23.77-3.37,6.56-9.21,11.33-12.25,17.63-3.14,6.51-3.21,14.33-3.11,21.77-4.06,1.74-1.26,5.35-2.16,8-2.38.52-2.38,4.23-5.34,4,.06-.94.11-1.87.16-2.81.92-4.88,5.87-9.44,1.12-14.75-5.24-4.17-2.71-7.53,1.13-10.74,2.91,1.48.41,5,2.43,6.83.66-3.29,1.47-6.46,1.89-9.68.33-2.59,3-5.26,0-7.87l-.27-1.52c4.23-2,1.9-6.85,4.59-10.07,5.19-6.24,11.42-11.27,17.05-17,5-5.1,10.56-9.94,13.6-16.43,3.2-6.84,10.69-7.64,15.17-12.44,7-7.54,15.21-13.79,23.31-20.1,2.28-1.76,4.88-3.12,7.33-4.66q-.65,3.44-1.27,6.87l0,0-1.85.37Z"/><path class="cls-3" d="M231.79,434c3.78,1.77,4.65,5.71,6.4,8.91,1.63,3,3.52,5.06,7.12,5-.43,8.5-.51,17,1.08,25.41.41,2.16.48,4.07,3.34,3.87,5.52.6,4,4.92,4.33,8.23-6.56-1.5-4.05,3.81-4.94,6.58-4.66-3.8-2.18-10.69-6.35-14.7.2-8.6-4.45-15.77-6.89-23.6-.71-2.31-1.6-4.72-4.17-4.27s-1,3.44-1.71,5.15a6.21,6.21,0,0,1-2.53-4.13l4.72-5.22c-5.75.8-7.44-2.4-9.21-5.73-2-3.67-2.81-7.95-6-10.92l-.76-.51.48.79a6.23,6.23,0,0,1-1.16,5.22C210.61,426,204,418.93,201,409.72c2.59-.09,3.36-1.15,2.81-3.86-.38-1.85-1.59-4.55,1.68-5.55,2,2.26,2-.82,3.07-1.16l1.54,1.41-.13.16c-.25,4.54,1.47,8.39,4.25,11.85,1,3.39,3.74,5.91,4.32,9.66.47,3.09,2.78,3.49,5.14,1.18,1.24,1.72,0,3.49.09,5.23-1.89,3.12-1.33,5.07,2.58,5.43,1.48-.61,2.72-.78,2.68,1.43-.71.11-1.71-.26-1.78.93,0,.26.5.79.75.78,1.21,0,.76-1.11,1-1.77C230.59,436.38,231.72,436.22,231.79,434Z"/><path class="cls-3" d="M285.47,178.26c-1.78,6.51-6,11.75-9.08,17.59-4.9,9.33-8.13,19.3-11,29.46-3.67,13.15-11,24.68-17.65,36.46-.12-.62-.24-1.23-.37-1.85l-.8.56,1.2,1.26c-.28,1.26-.56,2.52-.85,3.77-.71-.65.15,5.66-2.15.37-1.07-2.47-3.7,2.94-6.41,1.44-.31-1-.61-2-.92-3a1.78,1.78,0,0,0-1.87,1.48l.06-.08h-1.24c.7-3.37,2.68-5.42,5.5-7.63,6.74-5.27,8.3-13.95,12-21.21,5.39-10.51,10.24-21.27,13.24-32.76.86-3.33,2.49-5.23,6.91-3.52-5.67-5.43-4-9.76.39-14,1.63-1.59,4.27-2.61,3.55-5.92-.09-.43,1.36.88,2,1.56C281.61,183,282.83,179.28,285.47,178.26Z"/><path class="cls-4" d="M211.28,250.78c-2.1,6-6.44,11.09-7.78,17.47-6-.94-4.18,4.26-5.48,7-4.86,2.44-2.58-5.52-6.91-4.39,1,3.37,1.45,6.84,3.54,9.8.46.71.86,1.51,1.94,1.36l-.15.16-.5,3.87c-6.18-2.76-5.68-9.65-8.7-14.39C179.79,260,175,247,172,233.43c1.05,0,3.26,2.36,2.56-1.3-.4-2.13-.54-4.32-.8-6.48.32-.66.15-3.17,1.49-1,7,11.08,13.41,22.43,14.6,35.88-3.66,2.74-3.57,3.6.79,7.49,1.53-2.72-1.39-4.93-.79-7.5,2.61-1.54.14-5.36,3-6.77l3.42,11.18.81-3.33c7.19-.3,9.08-2.32,9.73-9.37.48-5.29,3.39-9.7,6.22-14,1.85-2.81,2.68.55,4,1-2.39,3.2-6.46,5.51-5.57,10.46l.05-.07c-.16.1-.47.21-.47.3A4,4,0,0,0,211.28,250.78Zm-29.87-9.45c-1.51,3.88,1,5.31,2.56,7.5C185,245.87,184,243.89,181.41,241.33Z"/><path class="cls-4" d="M366.32,462.39l-1.62-.19c.11-2.92-1.62-2.53-3.41-1.84-2.21.85-4.34,1.69-4.46-2l.29-.47-.22.53c-4.19-.86-4,2.31-4.49,4.87-2.22.3-4.76,1.46-5.6-2l1.06-6.77c1.06-.44,3.64-.48,2.61-1.82-2.94-3.79-1-8.13-2.23-12a5.74,5.74,0,0,1,.34-1c6,1.36,8.07-3.47,10.91-7.07a6.24,6.24,0,0,1,.07-1.14l-.07.07a1.4,1.4,0,0,0,1.41-1.42l-.06.05c1.88.06,2.9-.76,2.74-2.74l0,.06c1.48-.29,1.93-1.6,2.63-2.66,3,2,.09,4.25.17,6.37.16,4,1.47.57,2.27.37l2.26-.28c-.92,2.81-2.49,5.47-2.08,8.61l.17,1.68c-1.09.83-2,1.64.19,2.18,1.51,1.13.78,2.89,1.23,4.29.52,1.62-1.73,3.69.56,4.77s3.36-1.55,5-2.46l5.21-1.43c-3.25,3.95-4.31,10-10.51,11.14l-.5-.4c-.5-.86-.84-.43-1.16.15l0,0-1.37,1.38,0,0-1.39,1.38Zm1.21-15.91c-.25-.44,0-1.58-1.09-.91a2.57,2.57,0,0,0-1.13,1.53c-.07.39.56,1.29.9,1.3C367.4,448.43,367.46,447.42,367.53,446.48Z"/><path class="cls-4" d="M379.5,223.89l.27,1.52-2.93,7.94-1.11,1.48c-.08.43-.17.87-.28,1.3-3.84,3.21-6.37,6.57-1.13,10.74-.24,1.47.3,3.17-1.29,4.22L372,248.82c-.47.35-1.26.64-1.36,1.08-.41,1.83,1,2.21,2.34,2.52-.14,1.36-.27,2.72-.4,4.08-5.16.66-8.15,3.18-7.69,8.79.08,1.07,0,2.42-1.47,2.54-1.28.11-2-1-2.27-2.05-1-4.08-2.51-8.17-2.68-12.3a22.93,22.93,0,0,0-2.9-10.57l1.34-1.35a2.09,2.09,0,0,0,.45-.22c.07-.07.06-.23.09-.35l-.56.55-1.35,1.34c-1.31-.11-2.27-.67-1.42-2.07,4.47-7.36,9-14.72,13.6-22,1-1.64,2.73-2.86,4.12-4.28,1.56-1.59,3-.5,4.1.47,1.43,1.25.11,2.32-.67,3.36-3.44,4.55-6.86,9.12-10.95,14.55,3.68-.24,5-3,7.4-2.16l.54.33-.56-.31C371.92,225.81,375.87,225,379.5,223.89ZM365.74,245c1.72-2.95,1.29-4.59-1.13-5.84C363,241.56,364.21,243.07,365.74,245Zm-2.2,10.73-.61-1c-.18.35-.51.69-.5,1s.34.67.54,1Zm-1.7-19.22.1-.52-.72.14a1.21,1.21,0,0,0,.2.46C361.48,236.61,361.69,236.51,361.84,236.48Z"/><path class="cls-2" d="M320.45,491c-2,2.94-5.26,5.12-5.41,9.18,0,.6-.46,1.71-.73,1.71-7.4.16-8.73,7.26-12.84,11.15-1.13,1.07-2.42,2.39-4,1.34s-.16-2.35.18-3.53,2.11-3.47-.37-3.56c-1.52-.06-4.08-2.13-5.69,1.52-1.36,3.08-2.82,7.35-7.67,7.34,2.94-4.5,5.67-9.08,5.7-14.71-1.63-4.22,2-9-1-12.87s-.71-5.4,2.15-7.13c2.25,1.36,2.4,4.07,3.85,6,.76,1,0,3.43,1.4,3.3,6-.59,12.39,4.73,17.95-1.22C315.92,490.83,320.22,482.25,320.45,491Z"/><path class="cls-5" d="M306.87,413.76c-.8-16.15-4.46-32.06-3.91-48.32,4.07-11.92,8.84-12.8,19.17-11.93,3.14,2.46,5-1.88,7.71-1.48l1.32.29c0,.25,0,.49,0,.74-5.52,3.24-.21,6.45,0,9.68l-1.33,1.1c-1.39,2.41-.26,5-.58,7.51l-1,.16,1.08-.06c.38,1,.76,2,1.13,2.94l-2.11,2a5.1,5.1,0,0,0-1-.22l-1.56-3.78c-.51-2.29,4.09-5.47-1.21-6.93-.89-2.79.59-6.23-3.11-8.27-6.33-3.5-12.07-.47-12.85,7.05-.52,5.09,2.47,9.5,2.64,14.44-.2,2.24,1.91,4.54-.21,6.72-1,5.27-1,10.82.92,15.55,1.67,4.18,2.19,7.63.35,11.56-1.57-.08-2.2,1.05-3,2.15C307.54,417.23,307.19,415.44,306.87,413.76Z"/><path class="cls-6" d="M289.59,501.46c0,5.63-2.76,10.21-5.7,14.71-4.42,6.7-9.82,12.17-18.44,12.22-2.64,0-2.81,2.18-4.28,3.09-6.15-10.16-4.52-22.8-11.17-32.61,2.76-2.64.55-4.67-.83-6.8l0-.07c.89-2.77-1.62-8.08,4.94-6.58q.87,5.34,1.75,10.68c.16,1.48.06,3.06,1.59,4-.13,1.82.57,2.85,2.54,2.64a8.35,8.35,0,0,1-.73,8.18h7.48c-.65,1.07-1.76,1.12-2.83,1.45-1.61.51-4.86-1.1-4.46,2.22s-.06,7.09,2.81,9.33c2.54,2,5.56-.13,7.4-1.45,3.39-2.44.23-6.81,1.75-10.27,1.08-2.47-1.58-2.49-3.35-2.58l1.53-1.42a7.83,7.83,0,0,1,5.21-1.32v11.58c7.58-3.71,9.71-10,10.86-16.94Z"/><path class="cls-3" d="M335.16,122.93c-2.83,2.55-6.86,3.54-9.06,6.93-1.58-1.15-2.59-3.41-5.15-2.64,3.38-7.76,9.1-14,13.56-21.08,4.74-7.49,9.36-15.29,15.48-21.55,3.25-3.33,6.36-8.48,12.29-8.65l0,0c-.19,2.31-.64,4.47-3.18,5.39-3.35,2.49-6.22,5.3-6.49,9.82l-.39-.32c-1.59.26-1.36,1-.49,1.89l-.21,4.76c-2.32,1.23-4.2,3.63-7.32,2.77-3.87,2.6-5.9,6.81-8.89,10.18-1.85,2.08-.87,3.54,1.32,4.54.5,1.2,1,1.19,1.45,0l-.06,0h1.38C339.69,118.55,336.52,120.26,335.16,122.93Z"/><path class="cls-6" d="M249,381.58c-4.4,7.94-5.57,17.16-10.2,25.09-3.33,5.72-6.67,11.41-10.48,16.82l-2.15-2.21.3-3.23a141.66,141.66,0,0,0,13.45-26.75c.88-.24,1.71,3.05,2.59.09.56-1.88.85-3.84,1.27-5.75s.87-3.59,1.31-5.39c1.57-1.2,1.44-2.66.68-4.24q1.38-6.31,2.77-12.65c2.78.42,1.47,3.06,2.69,4.25,2.05-1.07,2.55-3,2.43-5-.12-2.2.72-2.46,2.67-2.19,2.92.4,1.4,1.94,1.17,3.32C256.32,370.5,250.87,375.19,249,381.58Z"/><path class="cls-4" d="M130.53,156.85c.61-3.59-2.28-6.86-.4-11.79,3.57,7,6,13.67,9.57,19.75,5.27,8.93,9.11,18.7,13.45,28.16.42.93.1,2.2.12,3.31a2.16,2.16,0,0,0-1,.79c-8.62-8.64-14.16-19.22-19-30.24.15-2.18-.58-3.85-2.71-4.71v0l.13-1.47c1.12-.39,2.15-1.08,2.2-2.27.08-1.48-1.18-1.62-2.35-1.64Z"/><path class="cls-4" d="M352.86,112.3C360.05,107,365.08,99.16,373,94.63l3,.15c-11.71,16.48-26.64,29.77-42.33,42.44,3.12-5.67,8.29-9.8,11.2-15.54C347.33,118.41,351.66,116.7,352.86,112.3Z"/><path class="cls-2" d="M229.86,190.8c-.48-8.63-2.15-17.25.23-25.76,1.53-5.49,2.28-10.48-.55-16.14-2.54-5.06-2.86-11.08-1.14-17.75,3.9,5,6.25,9.37,6,15.37C234,161.38,235.52,176.39,229.86,190.8Z"/><path class="cls-3" d="M325,327.34c1.62-3.53,11.25-6.67,13.88-4.13,3.31,3.21,5.22,2.83,7.31-1.12,1-1.93,3.15-3,5.29-3.73,0,1.38,0,2.75,0,4.12-1.63,2.44-1.34,5.19-1.3,7.9l-1.39,0L348,329c-.33-.82-.2-2.69-1.74-1.42s-1.56,3.53-1.07,5.55c-.9,1.21-4.53,1.29-1.66,4,0,1.29,0,2.58,0,3.86l-.16,8.34c-2.26,2.05-5.33,1.51-7.93,2.47.72-1.81,3.11-2.82,2.5-5.26,1.16-.2,2.8.4,3.27-1.08s-1.11-1.36-2-1.7l.25-6.8c-1.22-3.19,3.09-8.82-4.14-9.35l-4,.25-4,1.26Z"/><path class="cls-3" d="M206.23,327c-1.27.82-2.24,2.79-1.3,3.28,7,3.63-.73,7.85.63,11.62a7.72,7.72,0,0,1-1.1.63c-3.29.45-2.25,5.75-6.16,5.5,1.57-6.86,4.62-13.68.07-20.45-1.77,1,.37,3.7-1.75,5.4,1.31-8.86-1.5-17.2-.71-25.69,2.53-.53.77,4.48,4,3.08,1.1,4.31,2.32,8.6,3.24,13,.41,1.94,1,3.36,3.1,3.75Z"/><path class="cls-5" d="M372.76,329.19c11.33,12.13,16,27.29,19.61,43l-2,0a2,2,0,0,0-2.75-1.1l.19-.21a7.24,7.24,0,0,0,.14-1.23c-.37-3.32-2.3-6.12-3.23-9.31a85.44,85.44,0,0,0-17.19-31.14c-1.1-2.11-2.59-3.75-5.06-4.2-.15-.33-.29-.67-.42-1,0-2.1,1.14-3,3.14-3.12Z"/><path class="cls-3" d="M412.27,300.61c5,2.53,7.29,8.06,12.11,11,2.74,1.69,1.18,6,2.85,9.06,4.1,7.63,2.94,15-1.68,19.17.39-2.61.81-5.21,1.16-7.82.38-2.81-1.34-2.09-2.87-1.66-2.13-10.68-6.08-20.26-15.94-26.24C408.52,301.94,411.4,302.52,412.27,300.61Z"/><path class="cls-2" d="M352.86,112.3c-1.2,4.4-5.53,6.11-8,9.38-1.91.4-4.42-2.77-5.81,1.32-.72,2.13-2.54.28-3.85-.07,1.36-2.67,4.53-4.38,4.19-8l0,0c1,.08,1.34-.42,1.32-1.33l0,0c1.51-.57,2.83-1.26,2.33-3.26l-2.32.6-.33-.3c1-3.57,4.27-6.31,3.75-10.43,3.12.86,5-1.54,7.32-2.77-.24,3.54.64,7.15-.63,10.61C350,110.24,351.09,111.41,352.86,112.3Z"/><path class="cls-6" d="M206.23,327v.08c0-11.56,6.41-21,10.14-31.4,1.77-.05,2.52,1.23,3.25,2.54-3,9.07-4.84,18.5-9.14,27.14C209.44,327.44,209,330,206.23,327Z"/><path class="cls-5" d="M409.29,426.94c-4.68-3.39-5.46-10.37-.65-12.26,6.16-2.4,4.28-6.15,3.61-10.17l2.43-1.35c2,11.23,4.94,22.3,6,33.71-.48,2-.79,3.89,1.7,4.83a.61.61,0,0,0-.71-.67c-4.06.58-4.34-3.58-6.61-5.24,3-.9,2.58-3.33,2.14-5.48a62.4,62.4,0,0,0-2.44-9c-.71-1.93-.26-5.64-3.66-4.8-2.88.71-3.25,3.92-3.07,6.64A15.17,15.17,0,0,0,409.29,426.94Z"/><path class="cls-6" d="M321,127.22c2.56-.77,3.57,1.49,5.15,2.64-4.79,7.8-8.19,16.53-15.3,22.78-2.21-1.75.29-5.32-2.63-6.79C310.84,138.55,317,133.65,321,127.22Z"/><path class="cls-4" d="M389.62,200.39c-.46-14.79,9.59-24.23,12.83-36.65C405.1,172.61,400.19,186.84,389.62,200.39Z"/><path class="cls-5" d="M262.54,422c-.52-4.1,1.92-7.09,4-10.11,4-5.81,6.5-12,6.09-19.16,2,.41,4.43,2.18,5.07-1.63,1.38-.9,1.85-3.21,4.39-2.65l-10.37,24.94c-4.09.62-5.34,3.41-5.44,7.1l-1.23,1.1Z"/><path class="cls-5" d="M205.44,400.31c-3.27,1-2.06,3.7-1.68,5.55.55,2.71-.22,3.77-2.81,3.86-2.35-7.28-8.68-12.13-11.62-19.08-.51-1.22-1.27-2.28-1.17-3.67,2.61-.79,3.52,3.29,6.24,2.19,2.8,2.44,3.36,6.61,6.62,8.77a12,12,0,0,0,3.75-5.4C210.29,394.67,204.46,397.78,205.44,400.31Z"/><path class="cls-6" d="M325,327.34l2.34,1.85a2,2,0,0,0-.27,1.16,4.15,4.15,0,0,0-.2,1c-2.33,1.54-2.75,3.93-2.4,6.37.47,3.34-1.66,8.57,5.13,7.82l.36,2.33c-1.17.43-.85.89,0,1.36l-.11,2.75c-2.74-.4-4.57,3.94-7.71,1.48-4-7.21.46-15.06-1.57-22.52C320.29,330,322,326.8,325,327.34Z"/><path class="cls-5" d="M230,454.58c.76-1.71-.91-4.69,1.71-5.15s3.46,2,4.17,4.27c2.44,7.83,7.09,15,6.88,23.6-1.71-.5-2.1-2.95-4.22-2.82Q234.27,464.52,230,454.58Z"/><path class="cls-6" d="M414.68,403.16l-2.43,1.35c-.63-11.21-5.27-22.18-2-33.62l.61.1.63-.08,1.83,8c.17,1.34.34,2.68.5,4l.63,2.85C413.77,391.58,417.38,397.32,414.68,403.16Z"/><path class="cls-6" d="M222,353.31c.21,6.52-3.33,12.22-4.08,18.53q-2.52,4.89-5.06,9.78c-.18,1.31,3.24,2.53.11,3.92-.49-.72-1-1.45-1.19.14-.57.87-1.14,1.74-1.72,2.61l-2.25-.18.24-2.24a11.83,11.83,0,0,0,2.3-6.9,2,2,0,0,0,.47-1.2l1-2.64c4-6.25,5-13.53,6.86-20.52Z"/><path class="cls-6" d="M396.52,413.94c-3.77,7.76-1.65,13.79,4.82,19.22,2.19,1.84,5.23,3.86,5.3,7.53-5.58.05-7.6-6.78-13.14-6.79-.52-2.72.32-6.34-4.22-6.41l-3-3.57c0-.77.06-1.56.08-2.34,6.44,1.34,5.36-4.53,7.26-7.56Z"/><path class="cls-4" d="M260.44,191.47c-11.71,6.5-22.68,13.83-30.33,25.2-.6.89-1.66,1.94-2.78,1.28-1.5-.88-.76-2.29-.2-3.52,2.44-5.35,7.4-8.2,11.7-11.68C245.2,197.59,251.76,192.68,260.44,191.47Z"/><path class="cls-2" d="M144.49,136.63l12.39,23c.57,1.06.91,2.31-.19,3s-2-.29-2.73-1.18c-2-2.4-4.19-4.66-6-7.16C144.2,149.28,140.14,144.25,144.49,136.63Z"/><path class="cls-6" d="M198.3,348c3.91.25,2.87-5,6.16-5.5-.49,6.56-4,12.05-6.6,17.79-2.36,5.24-4.57,10.51-6.52,15.9-1.82-1-1.41-2.79-1.68-4.36Z"/><path class="cls-4" d="M261.36,132.36c.08,1.54-.37,3.38.32,4.56,3.17,5.44,3.16,11.32,2.43,17.53-5.17-8.49-8.17-17.92-11.16-27.36l2.94,0,1.4,0h0c0,1.14.17,2.18,1.36,2.72v0c0,1.81.8,2.81,2.7,2.71Z"/><path class="cls-6" d="M337.87,488.71c-1.4.35-2.78.53-4-.49,0-1.1,0-2.2.08-3.3,3.19-5.24,7.91-9.57,9.49-15.78l3.7,3.16c.13.71.26,1.42.38,2.13l-1.5,8-.07.05c-2.57.21-3.84,1.61-3.85,4.18l-1.47.94C338.91,486,338.36,487.28,337.87,488.71Z"/><path class="cls-4" d="M253.81,277.83c1.57,5.66-2.19,8.85-3.35,12.74-1.92,6.49-6.31,11.75-9.7,17.5-.84,1.43-2.18,2.68-3.82,1.68s-.28-2.31.48-3.31C243.93,297.91,246.7,287.27,253.81,277.83Z"/><path class="cls-5" d="M333.93,484.92c0,1.1-.05,2.2-.08,3.3-4.42,1.16-9.51-.91-13.4,2.8-.23-8.77-4.53-.19-6.5-1.53l-1.55-1.59a12.84,12.84,0,0,0,5.71-6.45c2.57-.73,5-2.18,7.83-1.54C327,484.13,330.18,485,333.93,484.92Z"/><path class="cls-6" d="M378.38,260.47c.9-2.61-1.9-6.22,2.16-8,.55,10,4.19,19.13,8.25,28.11-2.21-1.67-2.9,1.79-4.73,1.4-1.07-4.79-3.47-9-5.66-13.34C378.39,265.94,378.39,263.2,378.38,260.47Z"/><path class="cls-5" d="M387.71,334.43l-1.11-5.07c3.17-7,5.89-14.17,6.7-21.91.44-1.41.89-2.81,1.34-4.22,3.81,4.59,3.74,9,.75,14.3-2.45,4.31-4.49,9.09-4.75,14.29Z"/><path class="cls-4" d="M295.7,352.54a5.36,5.36,0,0,1,.11-1.76c4.43-10.23,8.9-20.44,14.19-30.29C307.24,332,304.14,343.4,295.7,352.54Z"/><path class="cls-5" d="M199.89,310.37c-3.21,1.4-1.45-3.61-4-3.08-.4-7.08,1.31-14.16,0-21.24.17-1.29.34-2.58.5-3.87,1.79-.94,1-3.78,3.27-4.39,0,5.45-1.7,11,1.06,16.29Q200.32,302.23,199.89,310.37Z"/><path class="cls-3" d="M369.52,62.88c2.81-.86,3-4.86,6.79-4.86-4.35,6.24-6.57,14-14.08,17.88l0,0c-.89-4.9,2.36-8.83,3.26-13.33.18-.91,1.66-3,3.1-.46-.82,1.05-1.59,2.1-.46,3.41Z"/><path class="cls-6" d="M221.12,333.29c0-2.64-.5-5.87,3.64-2.33,3.21,2.75,4-2.48,7.38-1.8-2.88,5.34-4.56,11.29-8.46,16.23C220.76,341.79,223.5,337,221.12,333.29Z"/><path class="cls-3" d="M189.66,371.86c.27,1.57-.14,3.39,1.68,4.36,2.62,3.94.81,8.92,3.06,12.94-2.72,1.1-3.63-3-6.24-2.19C184.58,381.53,184.27,376.41,189.66,371.86Z"/><path class="cls-2" d="M226.43,418.05l-.3,3.23-2.5,2.13c-2.36,2.31-4.67,1.91-5.14-1.18-.58-3.75-3.3-6.27-4.32-9.66,3.35-.06,6.84.59,9.68-2.36C225,413.15,221.19,417.15,226.43,418.05Z"/><path class="cls-3" d="M200.77,294.08c-2.76-5.27-1-10.84-1.06-16.29,1.49-2.2,0-2.42-1.69-2.54,1.3-2.74-.53-7.94,5.48-7C203.14,276.91,203.91,285.7,200.77,294.08Z"/><path class="cls-5" d="M215.52,434.08a6.23,6.23,0,0,0,1.16-5.22l.29-.28c3.2,3,4.05,7.25,6,10.92,1.77,3.33,3.46,6.53,9.21,5.73l-4.72,5.22A87.61,87.61,0,0,1,215.52,434.08Z"/><path class="cls-2" d="M177.34,200.69l-15.62-26.48C168.78,178.3,177.17,192.38,177.34,200.69Z"/><path class="cls-4" d="M378.38,260.47c0,2.73,0,5.47,0,8.21-.35,6.16,2.33,11.6,4.14,17.25a2.65,2.65,0,0,1-2.75,1.37c-2.2-5-.26-11.49-6.36-15.19-1.23-.74-.32-5-.39-7.68C376,264.7,376,261,378.38,260.47Z"/><path class="cls-3" d="M411.47,370.91l-.63.08-.61-.1c-5.74.21-2.07-6.05-5.22-7.62,2.12-1.54,1.51-3.86,1.71-5.94,3.56-2.59,5,2.15,7.72,2.27-1.24,2.37-.05,3.91,1.79,5.22a1.24,1.24,0,0,1,.24.75C414.33,366.91,408.07,364.39,411.47,370.91Z"/><path class="cls-6" d="M412.27,300.61c-.87,1.91-3.75,1.33-4.37,3.53l-11.07-11.31c1.74-.19,3.65,0,4.65-1.93C405.56,293.6,409.63,296.31,412.27,300.61Z"/><path class="cls-3" d="M211.44,249.69c-.89-4.95,3.18-7.26,5.57-10.46,4.33-3.49,7.56-8.41,13.29-10l-.13,1.51C222.7,235.81,218.22,243.89,211.44,249.69Z"/><path class="cls-2" d="M381.15,448.83l-5.21,1.43-.27-4.09.25.18c5.56-3.48,7.19-9.35,9.18-15a5.79,5.79,0,0,1,3.64-2.41c1.48,4-1.95,7-2.25,10.61l0,0c-2.73,1.42-4.39,3.49-4,6.75h0l-1.32,1.67C381.15,448.23,381.15,448.53,381.15,448.83Z"/><path class="cls-2" d="M255.89,127.06l-2.94,0c-5.62-.78-3.35-5.83-4.51-8.87-.91-2.37,1.63-3.06,3.68-3.31,3.21,2.22,3.29,5.77,3.87,9.11C256,125,255.92,126.05,255.89,127.06Z"/><path class="cls-2" d="M379.79,287.3a2.65,2.65,0,0,0,2.75-1.37l1.68-1.88c2.34.86,5.11,1.22,5.29,4.58-2.11,1.07-2.16,2.46-.63,4.1-.58,1.67-1.54,2.87-3.52,2.76C382.24,293.62,379.43,291.54,379.79,287.3Z"/><path class="cls-3" d="M219.62,298.22c-.73-1.31-1.48-2.59-3.25-2.54.26-3.94,1.47-7.28,5.59-8.76,1.26,2.37,3.51-4.18,4.5.51C225.47,291.84,222.44,295,219.62,298.22Z"/><path class="cls-4" d="M237.48,264.31c.31,1,.61,2,.92,3,2.64,5-2.34,6.49-4.25,9.39-3.34-.61-1.85-2.4-1-4,.31-.53.63-1.05.9-1.6,0-.05-.3-.28-.46-.42l-.85,1.66-2.58.22c-1.69-4.22,2.26-4.91,4.26-6.82h-.1c.45.94.89,1,1.34,0l-.06.08Z"/><path class="cls-2" d="M411.47,370.91c-3.4-6.52,2.86-4,5-5.34,2.47,5.28,1.23,9.68-3.16,13.33C412.69,376.24,412.08,373.57,411.47,370.91Z"/><path class="cls-6" d="M365.21,320.85c-2,.08-3.15,1-3.14,3.12-3.33-1.88-7-1.66-10.58-1.49,0-1.37,0-2.74,0-4.12C356.3,317.9,361.85,313.31,365.21,320.85Z"/><path class="cls-6" d="M238.54,474.48c2.12-.13,2.51,2.32,4.22,2.82,4.18,4,1.7,10.9,6.36,14.7l0,.07c-.09,1.61-.17,3.21-.25,4.82A103,103,0,0,1,238.54,474.48Z"/><path class="cls-3" d="M197.07,261.57l-.81,3.33-3.42-11.18-1-17.71,2.08.16Q195.51,248.88,197.07,261.57Z"/><path class="cls-2" d="M392,307.23c-.88,3-2.45,4.3-5.55,2.44-2.67-1.61-2.44-2.83-.21-4.89,3.12-2.88-2-5.34-.93-8.29C390.66,298.12,390.61,303.12,392,307.23Z"/><path class="cls-6" d="M459.28,150.1q.63-3.43,1.27-6.87l9.11-6.42C468.18,143,464.11,146.86,459.28,150.1Z"/><path class="cls-4" d="M270.69,314.27c.29,7.25-6.45,10.25-8.92,15.83-.44-5.91,5.3-15.4,8.92-15.83Z"/><path class="cls-6" d="M285.47,178.26c-2.64,1-3.86,4.74-7.46,4,2.43-4.43,6.94-6.92,10-10.75,2.68-.68,3.78-4.17,7-3.91C293.49,172.61,288.58,174.63,285.47,178.26Z"/><path class="cls-6" d="M392,307.23c-1.38-4.11-1.33-9.11-6.69-10.74a3.37,3.37,0,0,0,.06-1c2,.11,2.94-1.09,3.52-2.76h1.65c2.56,3,3.39,6.75,4.11,10.5-.45,1.41-.9,2.81-1.34,4.22A10,10,0,0,0,392,307.23Z"/><path class="cls-5" d="M423.84,330.39c1.53-.43,3.25-1.15,2.87,1.66-.35,2.61-.77,5.21-1.16,7.82l-.15,1.37c-1.17,2.33-2.33,4.67-3.5,7l-.9-.69c.39-3-1-6,.61-8.91C422.35,335.89,423.1,333.14,423.84,330.39Z"/><path class="cls-5" d="M152.31,197.07a2.16,2.16,0,0,1,1-.79c5.49,3.23,7.15,9.09,9.8,14.27l-2.83-1.3Z"/><path class="cls-5" d="M221.12,333.29c2.38,3.71-.36,8.5,2.56,12.1q-.84,4-1.66,7.92l-3.29,1.3Q219.93,343.95,221.12,333.29Z"/><path class="cls-6" d="M356.83,458.34c.12,3.71,2.25,2.87,4.46,2,1.79-.69,3.52-1.08,3.41,1.84l-6.32,3-1.64-.22c-1-1.74-2.87-1.19-4.33-1.72.48-2.56.3-5.73,4.49-4.87Z"/><path class="cls-2" d="M207.83,388.11l2.25.18c-1.76,4.12,3,8.32-.16,12.42l.13-.15-1.54-1.41c-1,.34-1,3.42-3.07,1.16-1-2.53,4.85-5.64-.67-7.78C204.66,390.28,205.85,388.92,207.83,388.11Z"/><path class="cls-6" d="M416.23,364.82c-1.84-1.31-3-2.85-1.79-5.22a8.09,8.09,0,0,1,2.82-6.58c.07.52.13,1,.2,1.57.53,1.11,1,.77,1.55,0a2.63,2.63,0,0,1,.84.13C418.63,358.07,421.47,362.89,416.23,364.82Z"/><path class="cls-5" d="M389.51,288.63c-.18-3.36-2.95-3.72-5.29-4.58-.06-.68-.11-1.35-.16-2,1.83.39,2.52-3.07,4.73-1.4l5.82,5.34-2.74,2.56-1.51,0A1.1,1.1,0,0,0,389.51,288.63Z"/><path class="cls-3" d="M160.24,209.25l2.83,1.3-.07-.05a4,4,0,0,0,2.74,4.1l0-.06,3.1,9.06c-.27.26-.55.53-.83.78C163.73,220.19,161.48,215,160.24,209.25Z"/><path class="cls-3" d="M391.87,288.52l2.74-2.56c1.26,3.08,5.84,1.55,6.87,4.94-1,2-2.91,1.74-4.64,1.93C393.69,293.11,392.78,290.81,391.87,288.52Z"/><path class="cls-4" d="M274.74,307.55c.25-5.73,3.43-10,6.78-14.25-1,5.38-2.54,10.46-6.8,14.23Z"/><path class="cls-3" d="M173.71,225.65c.26,2.16.4,4.35.8,6.48.7,3.66-1.51,1.28-2.56,1.3-.69-3.3-4.45-5.25-4-9.05.28-.25.56-.52.82-.78a1.69,1.69,0,0,0,2.24-.89Z"/><path class="cls-4" d="M386.49,439.54c.3-3.63,3.73-6.6,2.25-10.6l.54-1.45c4.54.07,3.7,3.69,4.22,6.41C389.59,433.82,390.26,439.44,386.49,439.54Z"/><path class="cls-3" d="M130.73,160.67l-.13,1.47c-4.79-2.37-5.72-7.26-8.44-12,4.71.95,4.36,6.44,8.37,6.72l.05-.08Z"/><path class="cls-4" d="M226.46,287.43c-1-4.69-3.24,1.86-4.5-.51l1-3.64c1,0,1.65-.32,1.83-1.35l0,0c1.33-.45,1.51-1.46,1.33-2.67v0c1.5.29,3.3-.16,4.13,1.72C228.58,282.82,229.31,286.19,226.46,287.43Z"/><path class="cls-6" d="M352.56,91.11c.27-4.52,3.14-7.33,6.49-9.82C358.33,85.52,359.13,90.75,352.56,91.11Z"/><path class="cls-3" d="M356.73,465l1.65.22c-1.22,2.74-2.54,5.39-5.58,6.59l.06.06c.5-2.32-1.3-2.75-2.8-3.43C350.65,464.1,354.3,465.74,356.73,465Z"/><path class="cls-3" d="M230.34,280.93c-.83-1.88-2.63-1.43-4.13-1.72-.42-3.25,3.66-3.85,4-6.68l2.58-.22.41.36c-.86,1.64-2.35,3.43,1,4C233.34,278.54,232.46,280.3,230.34,280.93Z"/><path class="cls-3" d="M421.9,348.25c1.17-2.34,2.33-4.68,3.5-7,1.19.45,3.16.76,2.27,2.44a98.92,98.92,0,0,1-5.7,8.63C422,351,421.92,349.6,421.9,348.25Z"/><path class="cls-2" d="M212.88,381.62q2.53-4.89,5.06-9.78C220.76,379.18,220.24,380.19,212.88,381.62Z"/><path class="cls-4" d="M193.93,236.17l-2.08-.16c-3.21-3.17-1.66-7-2-12C192.06,228.79,194.8,231.88,193.93,236.17Z"/><path class="cls-6" d="M372.55,256.5c.13-1.36.26-2.72.4-4.08a4,4,0,0,0,.08-1.33c1.59-1.05,1.05-2.75,1.29-4.22,4.75,5.31-.2,9.87-1.12,14.75C373,259.91,372.77,258.2,372.55,256.5Z"/><path class="cls-5" d="M171,222.71a1.69,1.69,0,0,1-2.24.89c-1-3-2.06-6-3.09-9.06C169.64,215.85,169.86,219.59,171,222.71Z"/><path class="cls-2" d="M210.37,379a11.83,11.83,0,0,1-2.3,6.9c-2-1-3.32-2.71-2.77-4.78C205.94,378.69,208.35,378.92,210.37,379Z"/><path class="cls-2" d="M382.41,90.68c.63-3.76,2.72-4.53,6.5-3.16-1.66,2.91-4,3.21-6.43,3.25Z"/><path class="cls-2" d="M376,94.78l-3-.15c.55-5.18,4-2.95,6.72-2.63l.14.16C379.62,94.63,377.88,94.85,376,94.78Z"/><path class="cls-4" d="M243.74,385.64c-.42,1.91-.71,3.87-1.27,5.75-.88,3-1.71-.33-2.59-.09C239.46,388.25,240.18,386,243.74,385.64Z"/><path class="cls-3" d="M346,482.45l1.5-8,2.68.14-.08-.08C348.6,477.08,350.16,481.24,346,482.45Z"/><path class="cls-4" d="M230.17,230.69l.13-1.51c.31-3.38,2.61-3.92,5.39-3.77l0,0C235.16,228.53,232.29,229.21,230.17,230.69Z"/><path class="cls-4" d="M382.48,446.25c-.35-3.26,1.31-5.33,4-6.75C386.8,442.72,385.19,444.82,382.48,446.25Z"/><path class="cls-4" d="M270.69,314.27c.51-2.75,1.33-5.3,4.05-6.72l0,0c-.17,3-.25,6-4,6.74Z"/><path class="cls-2" d="M227.38,397.22a1.75,1.75,0,0,1-1.68,1.65c-1,0-1.82-.58-1.55-1.54a2.85,2.85,0,0,1,1.71-1.7C226.83,395.38,227.33,396.24,227.38,397.22Z"/><path class="cls-4" d="M367.64,462.4c-.08,2.12.12,4.4-3.08,4.9-1.22-2.32,1.5-3.23,1.76-4.91l-.05,0h1.37Z"/><path class="cls-5" d="M421.9,348.25c0,1.35.05,2.7.07,4.06l-1.81,1,.09.05-1-.92a1.56,1.56,0,0,0,.31-.52c0-.18-.1-.38-.16-.57-.06.36-.11.71-.17,1.07-1.92-.51-2.27-1.95-2.15-3.65,1.68.82,2.78-.18,3.87-1.22Z"/><path class="cls-3" d="M342.08,486.68c0-2.57,1.28-4,3.85-4.18C346.06,485.2,344.56,486.39,342.08,486.68Z"/><path class="cls-2" d="M211.87,375.13l-1,2.64c-1.44-.54-3.47-1.3-2.77-2.92C209,372.72,210.57,374.93,211.87,375.13Z"/><path class="cls-2" d="M204.71,377.52c-.89.42-1.58,1-1.84.82a3.38,3.38,0,0,1-1.58-1.73c-.26-1.18.75-1.43,1.58-1C203.52,375.92,203.94,376.69,204.71,377.52Z"/><path class="cls-3" d="M248.92,496.89c.08-1.61.16-3.21.25-4.82,1.38,2.13,3.59,4.16.83,6.8Z"/><path class="cls-4" d="M245.73,376c.76,1.58.89,3-.68,4.24C243.15,378.49,243.57,377.11,245.73,376Z"/><path class="cls-3" d="M130.6,162.12c2.13.86,2.86,2.53,2.71,4.71C131.35,165.88,130.05,164.53,130.6,162.12Z"/><path class="cls-3" d="M122.37,147.29c-.38,1-.89,1.52-1.46,1a4.09,4.09,0,0,1-1-2.18c-.08-.54.49-1.27,1.19-.62A9.75,9.75,0,0,1,122.37,147.29Z"/><path class="cls-5" d="M165.74,214.6a4,4,0,0,1-2.74-4.1C165.46,210.84,166.05,212.41,165.74,214.6Z"/><path class="cls-3" d="M337.87,488.71c.49-1.43,1-2.71,2.74-1.09A1.9,1.9,0,0,1,337.87,488.71Z"/><path class="cls-2" d="M414.43,385.77l-.63-2.85C415.81,383.47,416.67,384.27,414.43,385.77Z"/><path class="cls-6" d="M297.76,164.94l-.15,2.62-2.6,0c-.22-1.83.73-2.7,2.42-3Z"/><path class="cls-3" d="M352.8,471.8c-.09,1.71-.92,2.68-2.7,2.69l.08.08a2.61,2.61,0,0,1,2.68-2.71Z"/><path class="cls-4" d="M235.69,225.41c.1-.87.11-1.84,1.25-2,.22,0,.77.52.74.74-.17,1.14-1.16,1.11-2,1.23Z"/><path class="cls-2" d="M422.35,441.7c-2.49-.94-2.18-2.85-1.7-4.83C423.38,437.72,422.79,439.73,422.35,441.7Z"/><path class="cls-4" d="M370.64,460a2.64,2.64,0,0,1-3,2.43h0c0-.46,0-.91,0-1.37l0,0L369,459.7l0,0a7.51,7.51,0,0,0,1.16-.15Z"/><path class="cls-6" d="M458,151.48l-.57-1.06,1.85-.37C458.9,150.53,458.47,151,458,151.48Z"/><path class="cls-2" d="M225.43,405.48c.16.06.45.11.46.17a1,1,0,0,1-.19.54s-.31-.1-.47-.16Z"/><path class="cls-2" d="M382.48,90.77l-2.63,1.39-.14-.16a3,3,0,0,1,2.7-1.31Z"/><path class="cls-5" d="M417.46,354.59c-.07-.53-.13-1-.2-1.57l3,.35-.09-.05c-.1.46-.2.92-.31,1.38a2.63,2.63,0,0,0-.84-.13Z"/><path class="cls-3" d="M226.2,279.23c.18,1.21,0,2.22-1.33,2.67A1.91,1.91,0,0,1,226.2,279.23Z"/><path class="cls-6" d="M351.68,92.68c-.87-.9-1.1-1.63.49-1.89C352,91.42,351.84,92.05,351.68,92.68Z"/><path class="cls-2" d="M211.8,385.68c.21-1.59.7-.86,1.19-.14A6.78,6.78,0,0,1,211.8,385.68Z"/><path class="cls-4" d="M381.14,447.93l1.32-1.67Z"/><path class="cls-3" d="M224.84,281.93c-.18,1-.88,1.35-1.83,1.35C223.36,282.48,223.77,281.75,224.84,281.93Z"/><path class="cls-3" d="M211.28,250.78a4,4,0,0,1-.26-.86c0-.09.31-.2.47-.3Z"/><path class="cls-5" d="M284.17,463.82c2.35-4.06.23-8.22.23-12.33q0-13-.34-26.06a10.07,10.07,0,0,1,2.6-7.2c.07-.56.13-1.13.2-1.69,1.64-.44,3.38-5.94,4.9.27,1,4.2,4.23-.46,6.08,1.07-4.08,4.23-1.61,6.45,2.5,8.18-6.15-.54-10.25,1.63-10.44,8.37-.3,10.61-2.27,21.15-1.45,31.82-5.11,2-2.33,8.05-5.65,11-.41-2.25-.82-4.51-1.24-6.76A8.26,8.26,0,0,0,284.17,463.82Z"/><path class="cls-3" d="M282.8,477.22c3.32-2.92.54-9,5.65-11l-.17.13-.18,1.56c1.61,4.37-.39,9.45,2.65,13.53-2.86,1.73-5.08,3.3-2.15,7.13s-.64,8.65,1,12.87l-4,0Q284.22,489.37,282.8,477.22Z"/><path class="cls-5" d="M249.73,477.19c-2.86.2-2.93-1.71-3.34-3.87-1.59-8.43-1.51-16.91-1.08-25.41q1.08-2.21,2.18-4.39l2.24-.69,1.35,1.21c-1.05,3.72-2.62,7.33-2.36,11.32C247,462.73,249.52,469.9,249.73,477.19Z"/><path class="cls-3" d="M306.87,413.76c.32,1.68.67,3.47,2.46.88.76-1.1,1.39-2.23,3-2.15a4.15,4.15,0,0,1,.3,1.2c-2.68,1.88-.8,4.91-1.82,7.21l-2.32-.14c-2.69-2.67-7.52,1.84-9.61-2.86C300,413.61,304.33,415.41,306.87,413.76Z"/><path class="cls-4" d="M298.84,417.9c2.09,4.7,6.92.19,9.61,2.86-.42,5.26-5.82,2.89-8.11,5.3-4.11-1.73-6.58-3.95-2.5-8.18C298.17,417.9,298.51,417.91,298.84,417.9Z"/><path class="cls-5" d="M256,428.77c2.07-1.52,1.93-5.16,5.25-5.49-.89,2.71-1.79,5.42-2.68,8.14l-5.75,10.68c-.57.65-1.14,1.29-1.7,1.94l-1.35-1.21,3.51-8.64C254.15,432.38,255.06,430.58,256,428.77Z"/><path class="cls-3" d="M253.19,455.77c5.11,2.1,8.48,6.82,13.48,9.14-5.23-1.41-12.59,1-13.64-7.82A4.51,4.51,0,0,0,253.19,455.77Z"/><path class="cls-4" d="M253.19,455.77a4.51,4.51,0,0,1-.16,1.32l-4.31-1.73c-.26-4,1.31-7.6,2.36-11.32l1.71-1.94C255,446.6,252.05,451.24,253.19,455.77Z"/><path class="cls-4" d="M266.69,510.9h-7.48a8.35,8.35,0,0,0,.73-8.18c2.4-2.32,3.06,0,4,1.5-.15,4.15,4.69,1.26,5.57,4L268,509.6l0-.05c-.82.1-1.43.41-1.39,1.38Z"/><path class="cls-6" d="M284.17,463.82a8.26,8.26,0,0,1-2.61,6.64c-2.23-3.88-1.76-7.76-.45-11.91C283.66,459.86,282.35,462.66,284.17,463.82Z"/><path class="cls-4" d="M258.54,431.42c.89-2.72,1.79-5.43,2.68-8.14l0,0c1,.07,1.41-.44,1.4-1.38l-.06.05,2.5-.41C264.78,426.12,264.69,430.76,258.54,431.42Z"/><path class="cls-5" d="M269.54,508.18c-.88-2.7-5.72.19-5.57-4,3.65.63,8.12-2.07,10.78,2.64A7.83,7.83,0,0,0,269.54,508.18Z"/><path class="cls-4" d="M266.27,420.48c.1-3.69,1.35-6.48,5.44-7.1C271.52,417,270.27,419.79,266.27,420.48Z"/><path class="cls-4" d="M257.4,500.08c-1.53-.92-1.43-2.5-1.59-4,1.23.15,2.86-.49,3.48,1S258.47,499.36,257.4,500.08Z"/><path class="cls-6" d="M286.86,416.54c-.07.56-.13,1.13-.2,1.69-1.26-.79-1.28-1.84-.67-3Z"/><path class="cls-7" d="M300.31,369.49l1,1.39c-1.59.43-.64-.94-1-1.4Z"/><path class="cls-4" d="M254.17,469.36c-.16.05-.42.17-.46.12a2,2,0,0,1-.18-.54c.16-.05.43-.17.46-.12A1.56,1.56,0,0,1,254.17,469.36Z"/><path class="cls-6" d="M406.72,357.33c-.2,2.08.41,4.4-1.71,5.94-6.64-.53-9.93-5.27-12.46-10.48-2.61-5.36-4.62-11-4.69-17.12a2.9,2.9,0,0,1-.06-1.31l-.08.07,2.92-2.61c.39,6.49,2.51,12.62,3.9,18.9,2.26,2.84,1.81,9.36,8.46,6.24l2.49.49c.41,0,.83-.06,1.24-.12Z"/><path class="cls-4" d="M409.29,426.94a15.17,15.17,0,0,1-1.29-3.75c-.18-2.72.19-5.93,3.07-6.64,3.4-.84,2.95,2.87,3.66,4.8a62.4,62.4,0,0,1,2.44,9c.44,2.15.9,4.58-2.14,5.48C413.94,432.31,406.61,432.87,409.29,426.94Z"/><path class="cls-5" d="M395.75,381.72A78.79,78.79,0,0,1,398.2,399c-1.37.13-2.94-.16-3.5,1.67.45,3-1.45,5.36-2.46,8-1.6,3.24-1.46,7.29-4.6,9.8-.45-3.64.95-6.86,2.17-10.18,1.74-4.7,4-9.34,3.1-14.62l.95-4.6C395.22,386.78,393.57,383.76,395.75,381.72Z"/><path class="cls-6" d="M395.75,381.72c-2.18,2-.53,5.06-1.88,7.3-3-1.65-3.36-4.46-3.39-7.44,1.14,0,2.28,0,2.18-1.58,0-.2-1-.53-1-.5-.41.7-.76,1.44-1.12,2.17-1.71-.88-1.36-2.64-1.75-4.08,1.35-.15,2.83-.24,2.76-2.1,0-.49-.66-.95-1-1.43l-2.52,2c-.11-1.32-.23-2.63-.34-3.95l2.69.06,2,0C394.23,375.08,395,378.41,395.75,381.72Z"/><path class="cls-3" d="M396.52,413.94l-2.93.08q-.3-2.75-.59-5.5c1.77.53,3.89,2.17,4.36-1.38l1.3.08C398.65,409.68,399,412.28,396.52,413.94Z"/><path class="cls-6" d="M398.66,407.22l-1.3-.08c-.56-2.29-.13-5-2.66-6.47.56-1.83,2.13-1.54,3.5-1.67C398.87,401.71,401.28,404.32,398.66,407.22Z"/><path class="cls-5" d="M387.8,334.36a2.9,2.9,0,0,0,.06,1.31,5.07,5.07,0,0,1-.36-.91C387.48,334.66,387.69,334.5,387.8,334.36Z"/><path class="cls-5" d="M223.63,423.41l2.5-2.13,2.15,2.21c-1.8,4.49,3.23,6.7,3.51,10.49-.07,2.24-1.2,2.4-2.88,1.46l.07.06c0-2.21-1.2-2-2.68-1.43-.33-2.06.69-4.76-2.58-5.43C223.67,426.9,224.87,425.13,223.63,423.41Z"/><path class="cls-3" d="M253.25,434.19l-3.51,8.64-2.25.69c-2.38-4.28,1.68-6.27,3.24-9.15Z"/><path class="cls-4" d="M253.25,434.19l-2.52.18c-.07-1-.15-2-.23-2.95l0,0c1.57-1.42,3-3.23,5.49-2.67C255.06,430.58,254.15,432.38,253.25,434.19Z"/><path class="cls-4" d="M250.5,431.42l-.53-.28.51.3Z"/><path class="cls-5" d="M262.6,421.94c0,.94-.4,1.45-1.4,1.38C261,422.21,261.26,421.52,262.6,421.94Z"/><path class="cls-6" d="M297.43,164.62c.43-1.69.87-3.43,3.14-3.22.3,0,.81,1,.72,1.48-.39,1.9-2.11,1.77-3.53,2.06Z"/><path class="cls-7" d="M261.32,132.43c-1.9.1-2.71-.9-2.7-2.71C260.66,129.48,261.39,130.56,261.32,132.43Z"/><path class="cls-7" d="M238.87,79.55c.59.68,1.25,1.78.42,2.2-1.17.59-1-.82-1.24-1.51C238.32,80,238.59,79.77,238.87,79.55Z"/><path class="cls-7" d="M237.38,77c.49.87,1,1.74,1.49,2.6-.28.22-.55.45-.82.69-.45-.9-.89-1.81-1.33-2.71Z"/><path class="cls-7" d="M258.63,129.76c-1.19-.54-1.38-1.58-1.36-2.72C258.67,127.47,258.94,128.47,258.63,129.76Z"/><path class="cls-7" d="M255.89,127.06c0-1,.06-2,.1-3a2.84,2.84,0,0,1,1.3,3Z"/><path class="cls-5" d="M375.45,236.13c.11-.43.2-.87.28-1.3l1.11-1.48,2.93-7.94c3,2.61.33,5.28,0,7.87-.42,3.22-1.23,6.39-1.89,9.68C375.86,241.08,378.36,237.61,375.45,236.13Z"/><path class="cls-6" d="M223.72,428.64c3.27.67,2.25,3.37,2.58,5.43C222.39,433.71,221.83,431.76,223.72,428.64Z"/><path class="cls-5" d="M228.91,435.44c-.2.66.25,1.72-1,1.77-.25,0-.77-.52-.75-.78.07-1.19,1.07-.82,1.78-.93Z"/><path class="cls-5" d="M216.68,428.86l-.48-.79.76.51Z"/><path class="cls-7" d="M208.51,399.15l1.54,1.41Z"/><path class="cls-7" d="M247.81,261.74l-1.2-1.26.8-.56c.13.62.25,1.23.37,1.85Z"/><path class="cls-7" d="M235.67,265.71c-.45,1-.89.94-1.34,0Z"/><path class="cls-7" d="M237.48,264.31l-1.87,1.48A1.78,1.78,0,0,1,237.48,264.31Z"/><path class="cls-6" d="M198,275.25c1.67.12,3.18.34,1.69,2.54-2.24.61-1.48,3.45-3.27,4.39l.15-.16-1.94-1.36c-2.09-3-2.58-6.43-3.54-9.8C195.44,269.73,193.16,277.69,198,275.25Z"/><path class="cls-6" d="M189.8,260.49c-.6,2.57,2.32,4.78.79,7.5-4.36-3.89-4.45-4.75-.79-7.49Z"/><path class="cls-7" d="M181.41,241.33c2.57,2.56,3.6,4.54,2.56,7.5C182.44,246.64,179.9,245.21,181.41,241.33Z"/><path class="cls-5" d="M194.65,280.66l1.94,1.36C195.51,282.17,195.11,281.37,194.65,280.66Z"/><path class="cls-2" d="M335.49,351.87c2.6-1,5.67-.42,7.93-2.47,2.74.14,1.68-3.51,3.88-3.89.12,4.51,2.29,8.43,3.48,12.58,1.76,6.16,4.19,12.05,6.08,18.13l.27,9.27c-2.26,1.93-.92,2.51,1.07,2.85,3.05,2.31-.25,6,2,8.6,8.65,10.07,9.18,22.15,8.45,34.53-.8.2-2.11,3.65-2.27-.37-.08-2.12,2.86-4.33-.17-6.37-3.44-1.65-2.3,1.24-2.63,2.66l0-.06c-2.11-.28-3,.65-2.74,2.74l.06-.05c-1.1-.15-1.87,0-1.41,1.42l.07-.07c-1.54-.71-2.6-.5-2.74,1.45l.1-.07c-2.46-.19-4.95-.6-7.09,1.15-1.16.11-1.8-.59-2.7-1.26-4.09-3.05-2.24-9-6.17-12a6,6,0,0,0-.44-1.23c-.06-6-1.94-11.64-3.19-17.41-1.69-9.34-2.06-19-6.87-27.58l-1.14-2.94,0-.1c.32-2.5-.81-5.1.58-7.51a1,1,0,0,0,1.33-1.1c-.24-3.23-5.55-6.44,0-9.68,1.09.16,2.22.42,2.66-1.06Z"/><path class="cls-6" d="M368.61,431.47c.73-12.38.2-24.46-8.45-34.53-2.21-2.57,1.09-6.29-2-8.6a2.54,2.54,0,0,0-1.07-2.85l-.27-9.27,3.07-.07c5.48,7.11,5.81,16,8.33,24.12A19.7,19.7,0,0,0,372,411.19c-.08,1.51-.3,3.05.77,4.36.45,3.08.91,6.17,1.37,9.25-3,1.15-1.82,4.43-3.25,6.39Z"/><path class="cls-5" d="M370.87,431.19c1.43-2,.24-5.24,3.25-6.39,1.62.28,2.08,4.29,4.43,1.72s5.18-1.66,7.71-2.6l3,3.57-.54,1.45a5.73,5.73,0,0,0-3.64,2.4c-7.7,2.17-9.93,7.68-9.18,15l-.25-.18c-3-2.29.28-6.38-2.42-8.82l-4.46,2.45C368.38,436.66,370,434,370.87,431.19Z"/><path class="cls-6" d="M348.59,439.58a4.92,4.92,0,0,0-.33,1.05c-4.93,2.57-5.08,7.94-.39,13.83q-.54,3.39-1.06,6.77l-2.21-.16c-2.36-4.74-2.11-10-3-15-.81-4.74-2.91-9.51,0-14.23.26,4.25,4.77,3.9,6.76,6.27C348.48,438.58,348.54,439.08,348.59,439.58Z"/><path class="cls-3" d="M368.79,439.8l4.46-2.45c2.7,2.44-.54,6.53,2.42,8.82l.27,4.09c-1.64.91-2.59,3.59-5,2.46s0-3.15-.56-4.77c-.45-1.4.28-3.16-1.23-4.3-.06-.72-.12-1.44-.19-2.17Z"/><path class="cls-3" d="M347.87,454.46c-4.69-5.89-4.54-11.26.39-13.83,1.22,3.88-.72,8.22,2.22,12C351.51,454,348.93,454,347.87,454.46Z"/><path class="cls-5" d="M344.6,461.07l2.21.16c.84,3.5,3.38,2.34,5.6,2,1.46.53,3.35,0,4.33,1.72-2.44.75-6.09-.89-6.68,3.44a4,4,0,0,0-2.94,3.87l-3.7-3.16C343.81,466.45,344.21,463.76,344.6,461.07Z"/><path class="cls-2" d="M348.59,439.58c0-.5-.11-1-.16-1.49,1.47-.25,1.7-1.32,1.71-2.55,2.46-.45,5.09-.49,6.79-2.79l-.1.07,2.67-.31C356.66,436.11,354.63,440.94,348.59,439.58Z"/><path class="cls-5" d="M363.54,427.39c.33-1.42-.81-4.31,2.63-2.66C365.47,425.79,365,427.1,363.54,427.39Z"/><path class="cls-5" d="M367.53,446.48c-.07.94-.13,1.95-1.32,1.92-.34,0-1-.91-.9-1.3a2.57,2.57,0,0,1,1.13-1.53C367.52,444.9,367.28,446,367.53,446.48Z"/><path class="cls-5" d="M360.85,430.07c-.27-2.09.63-3,2.74-2.74C363.75,429.31,362.73,430.13,360.85,430.07Z"/><path class="cls-5" d="M359.5,432.51l-2.67.31c.14-1.95,1.2-2.16,2.74-1.45A6.24,6.24,0,0,0,359.5,432.51Z"/><path class="cls-5" d="M359.5,431.44c-.46-1.39.31-1.57,1.41-1.42A1.4,1.4,0,0,1,359.5,431.44Z"/><path class="cls-5" d="M369,441.48c.07.73.13,1.45.19,2.17C366.94,443.12,367.87,442.31,369,441.48Z"/><path class="cls-6" d="M356.9,458.4l.22-.53-.29.47Z"/><path class="cls-7" d="M370.14,459.57a7.51,7.51,0,0,1-1.16.15C369.3,459.14,369.64,458.71,370.14,459.57Z"/><path class="cls-7" d="M369,459.7l-1.37,1.38Z"/><path class="cls-7" d="M367.66,461c0,.46,0,.91,0,1.37h-1.38Z"/><path class="cls-7" d="M365.74,245c-1.53-1.9-2.72-3.41-1.13-5.84C367,240.38,367.46,242,365.74,245Z"/><path class="cls-3" d="M373,251.09a4,4,0,0,1-.08,1.33c-1.37-.31-2.75-.69-2.34-2.52.1-.44.89-.73,1.36-1.08Z"/><path class="cls-7" d="M363.54,255.7l-.57,1c-.2-.34-.54-.67-.54-1s.32-.68.5-1Z"/><path class="cls-7" d="M361.84,236.48c-.15,0-.36.13-.42.08a1.21,1.21,0,0,1-.2-.46l.72-.14Z"/><path class="cls-7" d="M356.88,241.56l-1.34,1.35,0,0,1.35-1.34Z"/><path class="cls-7" d="M356.86,241.54l.56-.55c0,.12,0,.28-.09.35a2.09,2.09,0,0,1-.45.22Z"/><path class="cls-3" d="M376.84,233.35l-1.11,1.48Z"/><path class="cls-7" d="M371.67,230.79l.56.31-.54-.33Z"/><path class="cls-6" d="M290.75,481.46c-3-4.08-1-9.16-2.65-13.53l1.95-.25c1.59,4.34,2.82,8.85,4.83,13,3.48,7.14,10.26,9.74,17.52,7.24l1.55,1.59c-5.56,5.95-12,.63-17.95,1.22-1.4.13-.64-2.32-1.4-3.3C293.15,485.53,293,482.82,290.75,481.46Z"/><path class="cls-2" d="M344.6,461.07c-.39,2.69-.79,5.38-1.18,8.07-1.58,6.21-6.3,10.54-9.49,15.78-3.75.06-6.93-.79-8-5,1.81-4.09-2.12-6.37-3-9.6l-.51-3.58c.92-2.63.31-5.26.2-7.94-.21-5-4.89-8-5.19-12.78-1.24-10.83-2.23-21.69-4.84-32.32a4.15,4.15,0,0,0-.3-1.2c1.84-3.93,1.32-7.38-.35-11.56-1.89-4.73-1.89-10.28-.92-15.55,7.43,1.43,10.09-.34,9.78-6.49,2.92.86,5.22.26,6.52-2.74a5.1,5.1,0,0,1,1,.22,5.62,5.62,0,0,0,.24,5.24l.72,2.76c.15.9.3,1.81.44,2.72q4,17.94,8,35.9l.11,1.83.75,2.62c.6,1.18.41,3.12,2.63,2.79l.41,1.57c-2.94,4.74-.84,9.51,0,14.25C342.49,451.08,342.24,456.33,344.6,461.07Z"/><path class="cls-2" d="M311.23,378.66c-.17-4.94-3.16-9.35-2.64-14.44.78-7.52,6.52-10.55,12.85-7.05,3.7,2,2.22,5.48,3.11,8.27,1.33,4.78-5.17,3.22-5.43,6.72l0,0C314.61,372,314.89,377.73,311.23,378.66Z"/><path class="cls-6" d="M311.23,378.66c3.66-.93,3.38-6.65,7.91-6.54,2.11,1.87-7.33,6.58,1.66,6.77.31,6.15-2.35,7.92-9.78,6.49C313.14,383.2,311,380.9,311.23,378.66Z"/><path class="cls-6" d="M328.59,381.61a5.62,5.62,0,0,1-.24-5.24l2.11-2c4.82,8.56,5.19,18.24,6.87,27.58-3.08-1.89-2.49-5.39-3.71-8.09-1.06-2.32.39-6.28-3.87-6.79-.14-.91-.29-1.82-.43-2.72C332.12,382.64,330.51,382.08,328.59,381.61Z"/><path class="cls-4" d="M320.8,378.89c-9-.19.45-4.9-1.66-6.77l0,0,6.64.21,1.56,3.78C326,379.15,323.72,379.75,320.8,378.89Z"/><path class="cls-6" d="M325.76,372.37l-6.64-.22c.26-3.49,6.76-1.93,5.43-6.71C329.85,366.9,325.25,370.08,325.76,372.37Z"/><path class="cls-4" d="M335.49,351.87l-1.66.13-2.67.32-1.32-.29c0-.92.08-1.84.11-2.75l0,0c1,0,1.48-.37,1.32-1.4l0,0c2.51,1,4.56-.49,6.73-1.27C338.6,349.05,336.21,350.06,335.49,351.87Z"/><path class="cls-6" d="M331.16,352.32l2.67-.32c-.44,1.48-1.57,1.22-2.66,1.06C331.17,352.81,331.17,352.57,331.16,352.32Z"/><path class="cls-6" d="M329.29,371.35l0,.1-1.08.06Z"/><path class="cls-6" d="M331.2,362.74a1,1,0,0,1-1.33,1.1Z"/><path class="cls-2" d="M268,509.6c1.77.09,4.43.11,3.35,2.58-1.52,3.46,1.64,7.83-1.75,10.27-1.84,1.32-4.86,3.45-7.4,1.45-2.87-2.24-2.43-6.14-2.81-9.33s2.85-1.71,4.46-2.22c1.07-.33,2.18-.38,2.83-1.45l0,0c.88,0,1.5-.35,1.39-1.38Z"/><path class="cls-6" d="M344.15,100.21c.52,4.12-2.75,6.86-3.75,10.44-1.52,1-2.85,2.18-2.43,4.32l.06,0h-1.45c-2.19-1-3.17-2.46-1.32-4.54C338.25,107,340.28,102.81,344.15,100.21Z"/><path class="cls-2" d="M338,115c-.42-2.14.91-3.29,2.43-4.32l.33.29c0,.89,0,1.78,0,2.66l0,0c-.91,0-1.32.45-1.32,1.33l0,0Z"/><path class="cls-2" d="M336.58,114.93H338C337.56,116.12,337.08,116.13,336.58,114.93Z"/><path class="cls-7" d="M130.73,160.67l-.15-3.91c1.17,0,2.43.16,2.35,1.64C132.88,159.59,131.85,160.28,130.73,160.67Z"/><path class="cls-2" d="M368.26,400.27c-2.52-8.13-2.85-17-8.33-24.12-1-8.2-2.87-16.45-6.9-23.38-2.33-4-3.51-8.84-2.32-11.24,2.21-4.45.06-7.51-.52-11.15,0-2.71-.33-5.46,1.3-7.9,3.62-.17,7.25-.39,10.58,1.49.13.34.27.68.42,1-1,2.61.47,5.68-1.94,8.18-1.2,1.25-3.15,3.77-.88,5.39s4-.58,5.43-2.35a7.44,7.44,0,0,1,2.22-1.24c7.16,9.5,11.13,20.48,14.93,31.59.63,1.83-.24,6,4.27,4.62l1.31-.31-.19.2a2.34,2.34,0,0,0,.06,1.05c.11,1.32.23,2.63.34,3.95.26.51.52,1,.77,1.53.39,1.44,0,3.2,1.75,4.08l-.08-.09c0,3,.43,5.79,3.39,7.44l-1,4.61c-.82-.28-1.92-.3-2.41-.86-4.69-5.43-5.06-5.39-9.35.64C378,397.81,373.58,399.9,368.26,400.27Z"/><path class="cls-5" d="M350.19,330.38c.58,3.64,2.73,6.7.52,11.15-1.19,2.4,0,7.22,2.32,11.24,4,6.93,5.93,15.18,6.9,23.38l-3.07.07c-1.89-6.08-4.32-12-6.08-18.13-1.19-4.15-3.36-8.07-3.48-12.58.5-2.94-.64-4.51-3.72-4.45,0-1.28,0-2.57,0-3.86.95.23,2.28,1.6,2.71.61.66-1.46-.1-3.22-1.05-4.65-.49-2-.6-4.17,1.07-5.55s1.41.6,1.74,1.42c-.07.57-.13,1.14-.2,1.71l1-.4Z"/><path class="cls-4" d="M329.62,345.59c-6.79.75-4.66-4.48-5.13-7.82-.35-2.44.07-4.83,2.4-6.37,1.19,2.14-1.29,6.61,2.45,6.49a6.62,6.62,0,0,0,6-6.86c0-1.11,0-2.23.05-3.35,7.23.53,2.92,6.16,4.14,9.35C333.53,336.78,331,340.55,329.62,345.59Z"/><path class="cls-2" d="M335.37,327.68c0,1.12-.05,2.24-.05,3.35a6.62,6.62,0,0,1-6,6.86c-3.74.12-1.26-4.35-2.45-6.49a4.15,4.15,0,0,1,.2-1c1.94.09,3.86.16,4.29-2.42Z"/><path class="cls-2" d="M329.62,345.59c1.41-5,3.91-8.81,9.89-8.56q-.12,3.39-.25,6.8c-3.16.36-6.36.66-8,4.05l0,0a1.34,1.34,0,0,0-1.3,0l0,0Z"/><path class="cls-6" d="M331.26,347.88c1.64-3.39,4.84-3.69,8-4.05.89.34,2.48.22,2,1.7s-2.11.88-3.27,1.08C335.82,347.39,333.77,348.84,331.26,347.88Z"/><path class="cls-6" d="M343.58,341.06c3.08-.06,4.22,1.51,3.72,4.45-2.2.38-1.14,4-3.88,3.89Q343.51,345.23,343.58,341.06Z"/><path class="cls-6" d="M345.2,333.16c.95,1.43,1.71,3.19,1.05,4.65-.43,1-1.76-.38-2.71-.61C340.67,334.45,344.3,334.37,345.2,333.16Z"/><path class="cls-4" d="M331.38,327.93c-.43,2.58-2.35,2.51-4.29,2.42a2,2,0,0,1,.27-1.16Z"/><path class="cls-6" d="M348.8,330.34l-1,.4c.07-.57.13-1.14.2-1.71Z"/><path class="cls-3" d="M386.52,371.17c-4.51,1.38-3.64-2.79-4.27-4.62-3.8-11.11-7.77-22.09-14.93-31.59,1.27-1.33.14-1.44-.82-2-4.17-2.43-1.75-3.19,1.05-3.77a85.44,85.44,0,0,1,17.19,31.14c.93,3.19,2.86,6,3.22,9.31Z"/><path class="cls-6" d="M367.55,329.18c-2.8.58-5.22,1.34-1.05,3.77,1,.57,2.09.68.82,2a7.44,7.44,0,0,0-2.22,1.24c-1.47,1.77-3.17,4-5.43,2.35s-.32-4.14.88-5.39c2.41-2.5.92-5.57,1.94-8.18C365,325.43,366.45,327.07,367.55,329.18Z"/><path class="cls-3" d="M387.7,372.11a2.34,2.34,0,0,1-.06-1.05,2,2,0,0,1,2.75,1.11Z"/><path class="cls-6" d="M386.52,371.17l1.44-1.54a6.34,6.34,0,0,1-.13,1.23Z"/><path class="cls-2" d="M394.54,350.72c-1.39-6.28-3.51-12.41-3.9-18.9.26-5.2,2.3-10,4.75-14.29,3-5.27,3.06-9.71-.75-14.3-.72-3.75-1.55-7.47-4.11-10.5,0-1.4-.11-2.79-.17-4.18l1.51,0c.91,2.29,1.82,4.59,5,4.31l11.06,11.31c9.86,6,13.81,15.57,15.94,26.25-.74,2.75-1.49,5.5-2.23,8.25l-7.42,1.17a4.4,4.4,0,0,0-4.78-2.62,5.89,5.89,0,0,0-1.32-.11l-.79-1.65-.54,1.82c-2.18,0-3.72.7-3.55,3.43l6.16-.91,0,1.4c-.74,1.51-1.06,2.81,1.37,2.73l0,0c0,1.12.22,2.16,1.38,2.71l4.71,1.49a1.19,1.19,0,0,1,.52.52l-.22.18c-.12,1.71.23,3.15,2.15,3.66l0,0,1,.92-3-.35a8.09,8.09,0,0,0-2.82,6.58c-2.76-.12-4.16-4.86-7.72-2.27h0l.06-3.09c-.15-2.26-1.93-2.24-3.5-2.5l-.3-5.22c1.12-1.37,1.61-2.83-.42-3.66-1.59-.65-2.35.57-2.75,2C398.11,346.84,397.44,349.78,394.54,350.72Zm20-28.15c.3.81.44,1.8,1.56,1.84.25,0,.77-.51.75-.76-.07-1.12-1.08-1.21-1.89-1.5a4.32,4.32,0,0,0-4.14-4l-.67-.46.47.67A4.39,4.39,0,0,0,414.55,322.57Z"/><path class="cls-3" d="M340.72,113.6c0-.88,0-1.77,0-2.66l2.32-.6C343.55,112.34,342.23,113,340.72,113.6Z"/><path class="cls-3" d="M339.38,115c0-.88.41-1.36,1.32-1.33C340.72,114.54,340.34,115,339.38,115Z"/><path class="cls-4" d="M330,349.28c-.82-.47-1.14-.93,0-1.36l0,0c0,.47,0,.94,0,1.41Z"/><path class="cls-4" d="M368.26,400.27c5.32-.37,9.77-2.46,12.89-6.86,4.29-6,4.66-6.07,9.35-.64.49.56,1.59.58,2.41.86.9,5.28-1.36,9.92-3.1,14.62-1.22,3.32-2.62,6.54-2.17,10.18,0,1.22-4.88.44-1.3,3.15,0,.78,0,1.57-.08,2.34-2.53.94-5.49.17-7.71,2.6s-2.81-1.44-4.43-1.72c-.46-3.08-.92-6.17-1.37-9.25,3.76-2.95,7.32-6.05,8.37-11,.1-.2.2-.39.29-.59l-.31.57c-4.48.27-5,6-9.12,6.7A19.7,19.7,0,0,1,368.26,400.27Zm4.35,5-.34-.24,0,.38Z"/><path class="cls-2" d="M386.34,421.58c-3.58-2.71,1.28-1.93,1.3-3.15,3.14-2.51,3-6.56,4.6-9.8a3.87,3.87,0,0,0,.76-.11q.28,2.76.59,5.5C391.7,417.05,392.78,422.92,386.34,421.58Z"/><path class="cls-7" d="M347.12,472.3a4,4,0,0,1,2.94-3.87c1.5.68,3.3,1.11,2.8,3.43a2.61,2.61,0,0,0-2.68,2.71l-2.68-.14C347.38,473.72,347.25,473,347.12,472.3Z"/><path class="cls-2" d="M312.4,487.9c-7.26,2.5-14-.1-17.52-7.24-2-4.13-3.24-8.64-4.83-13-.33-.79-.42-1.9-1.77-1.31l.17-.13c-.82-10.66,1.15-21.2,1.45-31.81.19-6.74,4.29-8.91,10.44-8.37,2.29-2.41,7.69,0,8.11-5.3l2.32.14,3.09,20c-3.3,4.5-.75,9.28-.35,13.83.78,9,4.15,17.63,4.6,26.74A12.84,12.84,0,0,1,312.4,487.9Z"/><path class="cls-3" d="M318.11,481.45c-.45-9.11-3.82-17.73-4.6-26.74-.4-4.55-2.95-9.33.35-13.83,2.35.9-.26,5.25,3.57,5.13.3,4.82,5,7.82,5.19,12.78.11,2.68.72,5.31-.2,7.94-3.22-2.52-2.3-6.82-4.51-9.81,1.32,4.6-3.58,11.38,5,13.39.89,3.23,4.82,5.51,3,9.6C323.1,479.27,320.68,480.72,318.11,481.45Z"/><path class="cls-7" d="M384.06,282c.05.68.1,1.35.16,2l-1.68,1.88c-1.81-5.65-4.49-11.09-4.14-17.25C380.59,273,383,277.23,384.06,282Z"/><path class="cls-7" d="M369.52,62.88l-1.34,2.68c-1.13-1.31-.36-2.36.46-3.41C368.92,62.4,369.22,62.64,369.52,62.88Z"/><path class="cls-4" d="M375.92,446.35c-.75-7.33,1.48-12.84,9.18-15C383.11,437,381.48,442.87,375.92,446.35Z"/><path class="cls-3" d="M390.36,288.55c.06,1.39.12,2.78.17,4.18h-1.65c-1.53-1.64-1.48-3,.63-4.1A1.1,1.1,0,0,1,390.36,288.55Z"/><path class="cls-3" d="M232.75,272.31l.85-1.66c.16.14.48.37.46.42-.27.55-.59,1.07-.9,1.6Z"/><path class="cls-3" d="M414.19,339.81l7.42-1.17c-1.59,2.88-.22,6-.61,8.92-1.1,1-2.2,2-3.88,1.22,0,0,.22-.19.21-.2l.5-1-1,.48-4.71-1.49,1.23-2.76-1.53-3.62Z"/><path class="cls-3" d="M417.46,354.59l1.55,0C418.5,355.36,418,355.7,417.46,354.59Z"/><path class="cls-3" d="M419.29,352.45l0,0c.06-.36.11-.71.17-1.07.06.19.19.39.16.57A1.56,1.56,0,0,1,419.29,352.45Z"/><path class="cls-5" d="M288.28,466.37c1.35-.59,1.44.52,1.77,1.31l-1.95.25Z"/><path class="cls-5" d="M317.43,446c-3.83.12-1.22-4.23-3.57-5.13l-3.09-20c1-2.3-.86-5.33,1.82-7.21C315.2,424.32,316.19,435.18,317.43,446Z"/><path class="cls-6" d="M268,509.55c.11,1-.51,1.34-1.39,1.38C266.61,510,267.22,509.65,268,509.55Z"/><path class="cls-3" d="M394.54,350.72c2.9-.94,3.57-3.88,5.28-5.9l3.17,1.7c.1,1.74.2,3.48.29,5.22-.1,1.74-.19,3.48-.28,5.22C396.35,360.08,396.8,353.56,394.54,350.72Z"/><path class="cls-4" d="M403,357c.09-1.74.18-3.48.28-5.22,1.58.26,3.36.24,3.51,2.5a3.21,3.21,0,0,0-1.3,3.21Z"/><path class="cls-3" d="M405.49,357.45a3.21,3.21,0,0,1,1.3-3.21l-.06,3.09C406.32,357.39,405.9,357.43,405.49,357.45Z"/><path class="cls-4" d="M393,408.52a3.87,3.87,0,0,1-.76.11c1-2.6,2.91-4.92,2.46-8,2.53,1.48,2.1,4.18,2.66,6.47C396.89,410.69,394.77,409.05,393,408.52Z"/><path class="cls-3" d="M388.81,377.59c-.25-.51-.51-1-.77-1.53l2.52-2c.35.48,1,.94,1,1.43C391.64,377.35,390.16,377.44,388.81,377.59Z"/><path class="cls-4" d="M390.56,381.67c.36-.73.71-1.47,1.12-2.17,0,0,1,.3,1,.5.1,1.59-1,1.61-2.18,1.58Z"/><path class="cls-3" d="M329.75,387.09c4.26.51,2.81,4.47,3.87,6.79,1.22,2.7.63,6.2,3.71,8.09,1.26,5.77,3.14,11.43,3.2,17.41l-1.45.63,1.89.6c3.93,3,2.08,9,6.17,12,.9.67,1.54,1.37,2.7,1.26l.3,1.64c0,1.23-.24,2.3-1.71,2.55-2-2.37-6.5-2-6.76-6.27l-.42-1.59c-.57-1.21-.95-2.6-2.62-2.79l-.75-2.62c1.36-.7.72-1.27-.11-1.83Q333.77,405,329.75,387.09Z"/><path class="cls-5" d="M350.14,435.54l-.3-1.64c2.14-1.75,4.63-1.34,7.09-1.15C355.23,435.05,352.6,435.09,350.14,435.54Z"/><path class="cls-7" d="M357.13,385.49a2.54,2.54,0,0,1,1.07,2.85C356.21,388,354.87,387.42,357.13,385.49Z"/><path class="cls-6" d="M341,420.61l-1.89-.6,1.45-.63A6,6,0,0,1,341,420.61Z"/><path class="cls-2" d="M381.12,404.51c-1.05,5-4.61,8.09-8.37,11-1.07-1.31-.85-2.85-.77-4.36,4.15-.72,4.64-6.43,9.12-6.7Z"/><path class="cls-5" d="M322.93,470.31c-8.6-2-3.7-8.79-5-13.39,2.21,3,1.29,7.29,4.51,9.81Z"/><path class="cls-3" d="M328.59,381.61c1.92.47,3.53,1,.73,2.76C329.07,383.45,328.83,382.53,328.59,381.61Z"/><path class="cls-6" d="M338.63,427.44c1.67.19,2.05,1.58,2.62,2.79C339,430.56,339.23,428.62,338.63,427.44Z"/><path class="cls-6" d="M337.77,423c.83.56,1.47,1.13.11,1.83C337.84,424.21,337.8,423.6,337.77,423Z"/><path class="cls-6" d="M329.92,349.3c0-.47,0-.94,0-1.41a1.34,1.34,0,0,1,1.3,0C331.4,348.93,330.89,349.32,329.92,349.3Z"/><path class="cls-3" d="M408.09,337.08a5.89,5.89,0,0,1,1.32.11l1.44,2.36-1.48.22-6.16.91c-.17-2.73,1.37-3.39,3.54-3.43Z"/><path class="cls-4" d="M403,346.52l-3.17-1.7c.4-1.39,1.16-2.61,2.75-2C404.6,343.69,404.11,345.15,403,346.52Z"/><path class="cls-4" d="M410.84,318.19a4.31,4.31,0,0,1,4.13,4l-.42.42a4.39,4.39,0,0,1-3.92-4.17Z"/><path class="cls-7" d="M409.37,339.77l1.48-.22a5.59,5.59,0,0,0,1,.65l1.53,3.62-2.61.05,0,0a2.71,2.71,0,0,0-1.37-2.73Z"/><path class="cls-5" d="M411.81,340.2a5.59,5.59,0,0,1-1-.65l-1.44-2.36a4.4,4.4,0,0,1,4.78,2.62Z"/><path class="cls-4" d="M415,322.15c.81.29,1.82.38,1.89,1.5,0,.25-.5.77-.75.76-1.12,0-1.26-1-1.56-1.84Z"/><path class="cls-4" d="M410.73,343.87l2.61-.05-1.23,2.76C411,346,410.77,345,410.73,343.87Z"/><path class="cls-4" d="M409.39,341.17a2.71,2.71,0,0,1,1.37,2.73C408.33,344,408.65,342.68,409.39,341.17Z"/><path class="cls-4" d="M408.09,337.08l-1.34.17c.19-.61.37-1.21.55-1.82Z"/><path class="cls-4" d="M410.63,318.4l-.47-.67.67.46Z"/><polygon class="cls-6" points="372.61 405.23 372.22 405.37 372.27 404.99 372.61 405.23"/><path class="cls-2" d="M381.1,404.49l.31-.57c-.09.2-.19.39-.29.59Z"/><path class="cls-5" d="M416.82,348.07l1-.48-.5,1A1.14,1.14,0,0,0,416.82,348.07Z"/></g></svg>